PathFileType	4	(X/Y/Z)	D:\Share\Shared_Data\Ergonomics\Sit To Stand Pertubation\S3\Perturbed.trc
DataRate	CameraRate	NumFrames	NumMarkers	Units	OrigDataRate	OrigDataStartFrame	OrigNumFrames	
100	100	9	18	m	100	6370	251
Frame#	Time	R_ASIS			R_Pelvis			V_Sacral			L_Pelvis			L_ASIS			Clavical			R_Acromium			L_Acromium			Sternum			Torso			R_Thigh_Med			R_Thigh_Lat			R_Thigh			R_Shank_Med			R_Shank_Lat			R_Shank			R_Heel			R_Toe			
		X1	Y1	Z1	X2	Y2	Z2	X3	Y3	Z3	X4	Y4	Z4	X5	Y5	Z5	X6	Y6	Z6	X7	Y7	Z7	X8	Y8	Z8	X9	Y9	Z9	X10	Y10	Z10	X11	Y11	Z11	X12	Y12	Z12	X13	Y13	Z13	X14	Y14	Z14	X15	Y15	Z15	X16	Y16	Z16	X17	Y17	Z17	X18	Y18	Z18	

6370	63.69	0.40321353	0.94300201	0.14428986	0.29270712	0.9522522	0.19578249	0.18666974	0.98047955	0.0046075211	0.30115491	0.96015985	-0.20023715	0.40594772	0.9352934	-0.13943727	0.3981376	1.3742031	0.0018356204	0.3492327	1.4308226	0.16941946	0.35356509	1.4321917	-0.15358769	0.42101331	1.2976631	0.0055058384	0.40429257	1.3608079	-0.064397141	0.3995076	0.47195108	0.061023796	0.32665515	0.4574808	0.1492137	0.41356091	0.65798315	0.10668573	0.30388153	0.10433416	0.094257454	0.29026187	0.095278236	0.17586267	0.27744519	0.28454968	0.17818932	0.23065132	0.049035751	0.13297873	0.44945538	0.049405441	0.11570795
6371	63.7	0.40618643	0.94282367	0.14461589	0.29543832	0.95190649	0.19590802	0.18982191	0.97965002	0.0041830568	0.30501273	0.95949097	-0.20056227	0.40969525	0.93484247	-0.13928064	0.39648163	1.3737827	0.0022113407	0.3461882	1.4298456	0.17013327	0.35116006	1.4314084	-0.15343086	0.42026196	1.2974594	0.0060448351	0.40279056	1.3603726	-0.063864388	0.40048059	0.47117477	0.06176334	0.32735867	0.45727176	0.14989372	0.41539331	0.65723492	0.10735154	0.30349945	0.10434129	0.094204567	0.29033875	0.095220337	0.17597398	0.2780621	0.28444107	0.17863788	0.23067682	0.049038151	0.13303571	0.44952353	0.049314907	0.11582256
6372	63.71	0.40886615	0.94256921	0.14497032	0.29789795	0.9515874	0.19602211	0.19276678	0.97896082	0.0037127101	0.30870032	0.9588443	-0.20091823	0.41316895	0.93427081	-0.13905081	0.39493817	1.3732317	0.0025485272	0.3431843	1.4286743	0.17085706	0.34883408	1.4304885	-0.15336343	0.4195972	1.2970948	0.0065399294	0.40134995	1.3597854	-0.063387974	0.40194284	0.47058801	0.062287186	0.32870569	0.45703427	0.15046188	0.41743604	0.65669598	0.10778477	0.30315771	0.10434501	0.094059227	0.29043768	0.095213379	0.17603815	0.27911719	0.2843374	0.17893419	0.23073126	0.04907235	0.13306204	0.44964584	0.049196823	0.11591001
6373	63.72	0.41126709	0.94229706	0.14536163	0.3000773	0.95128748	0.19609789	0.19549243	0.97840363	0.0032159567	0.31219238	0.95826801	-0.20125764	0.41637045	0.9336676	-0.13874095	0.39352164	1.3726334	0.0028488808	0.34024023	1.4273845	0.17158035	0.34660846	1.4295192	-0.15337407	0.41902939	1.2966538	0.0069907479	0.39998087	1.3591278	-0.062980644	0.40373447	0.47017493	0.062527851	0.3305047	0.45678363	0.15086105	0.41962558	0.65635699	0.10791248	0.30292252	0.10433362	0.093847916	0.29055396	0.095258659	0.17605048	0.28042902	0.28425229	0.17904123	0.23080945	0.049133099	0.13305092	0.44981311	0.049064373	0.1159651
6374	63.73	0.41341333	0.94206042	0.14579068	0.30198465	0.95098785	0.19611563	0.19799319	0.97794678	0.0027210302	0.31546133	0.95779047	-0.20152716	0.41931235	0.9331189	-0.13835474	0.39224203	1.3720607	0.0031155474	0.33738739	1.4260552	0.17228395	0.3445155	1.4285856	-0.15343819	0.41856448	1.2962125	0.0073975801	0.39869424	1.3584764	-0.06265062	0.40566946	0.46989951	0.062467972	0.33253162	0.45653537	0.15106706	0.42186908	0.65618561	0.10771779	0.30282855	0.10430041	0.093600357	0.29068085	0.095347626	0.17601126	0.28180423	0.28419611	0.17896017	0.2309016	0.04921133	0.13300365	0.4500079	0.048933182	0.11598836
6375	63.74	0.41533533	0.94190076	0.14624918	0.30365033	0.9506684	0.19606934	0.20027122	0.97754395	0.0022604082	0.31848227	0.95741956	-0.20167937	0.42201553	0.93269647	-0.1379063	0.39110739	1.3715641	0.0033544903	0.33466815	1.4247649	0.17294208	0.34259702	1.4277618	-0.15351965	0.41820029	1.2958293	0.0077613826	0.39750623	1.3578987	-0.06239473	0.40756738	0.46971487	0.062143478	0.33457397	0.45630597	0.15109785	0.42406253	0.65613586	0.10724001	0.30287851	0.10424734	0.093344208	0.29081039	0.095465469	0.17592439	0.28308163	0.28417484	0.17872723	0.23099608	0.049297318	0.1329287	0.45020941	0.048816406	0.11598466
6376	63.75	0.41706659	0.94184399	0.14672002	0.30512125	0.95031757	0.19596977	0.20233627	0.97714587	0.0018640157	0.32123782	0.957146	-0.20168587	0.42450449	0.93244916	-0.13741809	0.39012378	1.3711707	0.0035744805	0.33213269	1.4235836	0.17352719	0.34089999	1.4271068	-0.15357678	0.41792526	1.2955397	0.0080836029	0.39643701	1.3574476	-0.062196499	0.40928387	0.46957605	0.061630482	0.33646277	0.4561116	0.15100282	0.42611295	0.65615814	0.10656269	0.30303583	0.10418463	0.093099037	0.29093042	0.095593254	0.17579472	0.28416061	0.2841893	0.1784028	0.23108226	0.049382416	0.13283913	0.45039697	0.048722698	0.11596176
6377	63.76	0.41863904	0.94189972	0.14718112	0.30645056	0.9499397	0.19584283	0.20420326	0.97671161	0.0015534171	0.32372314	0.95695044	-0.20154642	0.42680325	0.93239746	-0.13691725	0.38929291	1.3708868	0.0037851481	0.32983234	1.422569	0.17401567	0.33947061	1.4266586	-0.15357097	0.4177229	1.2953583	0.0083667479	0.3955069	1.3571554	-0.062030396	0.41072958	0.46944968	0.061025303	0.33808588	0.45596451	0.15084198	0.42795392	0.65620898	0.10579748	0.30323346	0.10412597	0.092877007	0.29102362	0.095711311	0.1756286	0.28500574	0.28423593	0.17805554	0.23115253	0.049459675	0.13274924	0.45055441	0.04865559	0.11592834
6378	63.77	0.42007843	0.94206226	0.14761023	0.3076871	0.94955609	0.19572322	0.20588911	0.97621722	0.0013373587	0.32594858	0.95681171	-0.20128961	0.42893262	0.93253436	-0.13643129	0.3886095	1.3707069	0.0039946246	0.32781226	1.4217587	0.17439398	0.33834534	1.4264307	-0.15347594	0.41757812	1.2952867	0.0086157894	0.39473508	1.3570353	-0.06186808	0.4118743	0.46931821	0.060427258	0.33939011	0.45587039	0.15067004	0.42955054	0.65625635	0.10506747	0.30341138	0.104082	0.09269342	0.29107312	0.095805496	0.17543985	0.2856326	0.28430734	0.17774773	0.23120329	0.04952425	0.13267114	0.45067218	0.048613728	0.11589223
